<svg xmlns="http://www.w3.org/2000/svg" version="1.1" xmlns:xlink="http://www.w3.org/1999/xlink" width="512" height="512" x="0" y="0" viewBox="0 0 24 24" style="enable-background:new 0 0 512 512" xml:space="preserve" class=""><g><path d="m13.75 11.664-3.457 3.457A3.02 3.02 0 0 1 8.172 16H8v-.172c0-.789.32-1.562.879-2.121l3.457-3.457 1.414 1.414Zm1.043-3.871L13.75 8.836l1.414 1.414 1.043-1.043a1 1 0 0 0-1.414-1.414ZM24 12c0 6.617-5.383 12-12 12S0 18.617 0 12 5.383 0 12 0s12 5.383 12 12Zm-6.379-5.621a3.002 3.002 0 0 0-4.242 0l-5.914 5.914A4.968 4.968 0 0 0 6 15.828V17a1 1 0 0 0 1 1h1.172a4.968 4.968 0 0 0 3.535-1.465l5.914-5.914a3.002 3.002 0 0 0 0-4.242Z" fill="#ffffff" opacity="1" data-original="#000000" class=""></path></g></svg>